<?xml version="1.0" encoding="iso-8859-1"?>
<svg version="1.1" id="Capa_1" xmlns="http://www.w3.org/2000/svg" xmlns:xlink="http://www.w3.org/1999/xlink" x="0px" y="0px"
	 viewBox="0 0 535.578 535.578" style="enable-background:new 0 0 535.578 535.578;" xml:space="preserve">
<path d="M231.6,516.278c0,10.658-8.641,19.3-19.3,19.3H106.15c-10.659,0-19.3-8.641-19.3-19.3V19.3
	c0-10.659,8.641-19.3,19.3-19.3h106.15c10.659,0,19.3,8.641,19.3,19.3V516.278z"/>
<path d="M448.728,516.278c0,10.658-8.641,19.3-19.3,19.3h-106.15c-10.659,0-19.3-8.641-19.3-19.3V19.3
	c0-10.659,8.641-19.3,19.3-19.3h106.15c10.659,0,19.3,8.641,19.3,19.3V516.278z"/>
</svg>
